<?xml version="1.0" encoding="utf-8"?>
<!-- Generator: Adobe Illustrator 17.0.0, SVG Export Plug-In . SVG Version: 6.00 Build 0)  -->
<!DOCTYPE svg PUBLIC "-//W3C//DTD SVG 1.1//EN" "http://www.w3.org/Graphics/SVG/1.1/DTD/svg11.dtd">
<svg version="1.1" xmlns="http://www.w3.org/2000/svg" xmlns:xlink="http://www.w3.org/1999/xlink" x="0px" y="0px" width="877px"
	 height="233px" viewBox="0 0 877 233" enable-background="new 0 0 877 233" xml:space="preserve">
<g id="Layer_1_copy" display="none">
	<polygon display="inline" fill-rule="evenodd" clip-rule="evenodd" fill="#001E62" points="208.465,80.536 208.465,38.016 
		17.976,38.016 17.976,208.095 208.465,208.095 208.465,165.576 82.606,165.577 82.606,141.764 184.654,141.764 184.654,104.347 
		82.606,104.347 82.606,80.536 	"/>
	
		<rect x="686.384" y="141.764" display="inline" fill-rule="evenodd" clip-rule="evenodd" fill="#001E62" width="125.859" height="42.519"/>
	<polygon display="inline" fill="#001E62" points="368.338,38.017 368.338,123.056 296.905,38.017 232.275,38.017 232.275,208.095 
		296.905,208.095 296.905,123.056 368.338,208.095 432.968,208.095 432.968,38.017 	"/>
	<polygon display="inline" fill="#001E62" points="531.614,133.26 592.843,208.094 667.678,208.094 571.046,85.42 	"/>
	<rect x="456.779" y="38.016" display="inline" fill="#001E62" width="64.63" height="170.078"/>
	<polygon display="inline" fill="#001E62" points="519.866,163.874 657.472,38.016 580.937,38.016 497.257,114.551 	"/>
	<polygon display="inline" fill-rule="evenodd" clip-rule="evenodd" fill="#001E62" points="773.126,38.016 691.488,208.094 
		623.457,208.094 705.095,38.016 	"/>
	<polygon display="inline" fill-rule="evenodd" clip-rule="evenodd" fill="#001E62" points="715.299,38.016 798.636,208.094 
		864.967,208.094 781.63,38.016 	"/>
</g>
<g id="Layer_1">
	<polygon fill-rule="evenodd" clip-rule="evenodd" fill="#F1F1F1" points="208.465,80.536 208.465,38.016 17.976,38.016 
		17.976,208.095 208.465,208.095 208.465,165.576 82.606,165.577 82.606,141.764 184.654,141.764 184.654,104.347 82.606,104.347 
		82.606,80.536 	"/>
	<rect x="686.384" y="141.764" fill-rule="evenodd" clip-rule="evenodd" fill="#F1F1F1" width="125.859" height="42.519"/>
	<polygon fill="#F1F1F1" points="368.338,38.017 368.338,123.056 296.905,38.017 232.275,38.017 232.275,208.095 296.905,208.095 
		296.905,123.056 368.338,208.095 432.968,208.095 432.968,38.017 	"/>
	<polygon fill="#F1F1F1" points="531.614,133.26 592.843,208.094 667.678,208.094 571.046,85.42 	"/>
	<rect x="456.779" y="38.016" fill="#F1F1F1" width="64.63" height="170.078"/>
	<polygon fill="#F1F1F1" points="519.866,163.874 657.472,38.016 580.937,38.016 497.257,114.551 	"/>
	<polygon fill-rule="evenodd" clip-rule="evenodd" fill="#F1F1F1" points="773.126,38.016 691.488,208.094 623.457,208.094 
		705.095,38.016 	"/>
	<polygon fill-rule="evenodd" clip-rule="evenodd" fill="#F1F1F1" points="715.299,38.016 798.636,208.094 864.967,208.094 
		781.63,38.016 	"/>
</g>
</svg>
